<svg width="26" height="26" viewBox="0 0 26 26" fill="none" xmlns="http://www.w3.org/2000/svg">
<path d="M12.8972 9.92855H15.4568V6.24283H19.296V3.78569H15.4568V0.0999756H12.8972V3.78569H9.05794V6.24283H12.8972V9.92855ZM7.77818 20.9857C6.37044 20.9857 5.23145 22.0914 5.23145 23.4428C5.23145 24.7943 6.37044 25.9 7.77818 25.9C9.18592 25.9 10.3377 24.7943 10.3377 23.4428C10.3377 22.0914 9.18592 20.9857 7.77818 20.9857ZM20.5758 20.9857C19.1681 20.9857 18.0291 22.0914 18.0291 23.4428C18.0291 24.7943 19.1681 25.9 20.5758 25.9C21.9835 25.9 23.1353 24.7943 23.1353 23.4428C23.1353 22.0914 21.9835 20.9857 20.5758 20.9857ZM7.99574 16.9928L8.03413 16.8454L9.18592 14.8428H18.7201C19.68 14.8428 20.5246 14.3391 20.9597 13.5774L25.8996 4.96512L23.6728 3.78569H23.66L22.2523 6.24283L18.7201 12.3857H9.73622L9.56985 12.054L6.70318 6.24283L5.48741 3.78569L4.28443 1.32855H0.0996094V3.78569H2.65913L7.26628 13.1105L5.5386 16.1205C5.33384 16.4645 5.21866 16.87 5.21866 17.3C5.21866 18.6514 6.37044 19.7571 7.77818 19.7571H23.1353V17.3H8.31568C8.14931 17.3 7.99574 17.1648 7.99574 16.9928Z" fill="#2F7B3B"/>
</svg>
