<svg width="25" height="25" viewBox="0 0 25 25" fill="none" xmlns="http://www.w3.org/2000/svg">
<path d="M13.6946 2.50123C14.4243 2.49843 15.1541 2.50576 15.8836 2.52323L16.0776 2.53023C16.3016 2.53823 16.5226 2.54823 16.7896 2.56023C17.8536 2.61023 18.5796 2.77823 19.2166 3.02523C19.8766 3.27923 20.4326 3.62323 20.9886 4.17923C21.497 4.67884 21.8904 5.28318 22.1416 5.95023C22.3886 6.58723 22.5566 7.31423 22.6066 8.37823C22.6186 8.64423 22.6286 8.86623 22.6366 9.09023L22.6426 9.28423C22.6604 10.0134 22.668 10.7428 22.6656 11.4722L22.6666 12.2182V13.5282C22.6691 14.258 22.6614 14.9877 22.6436 15.7172L22.6376 15.9112C22.6296 16.1352 22.6196 16.3562 22.6076 16.6232C22.5576 17.6872 22.3876 18.4132 22.1416 19.0502C21.8912 19.718 21.4977 20.3228 20.9886 20.8222C20.4886 21.3306 19.8839 21.724 19.2166 21.9752C18.5796 22.2222 17.8536 22.3902 16.7896 22.4402C16.5226 22.4522 16.3016 22.4622 16.0776 22.4702L15.8836 22.4762C15.1541 22.494 14.4243 22.5017 13.6946 22.4992L12.9486 22.5002H11.6396C10.9099 22.5027 10.1801 22.495 9.45059 22.4772L9.25659 22.4712C9.0192 22.4626 8.78187 22.4526 8.54459 22.4412C7.48059 22.3912 6.75459 22.2212 6.11659 21.9752C5.44928 21.7246 4.84483 21.3311 4.34559 20.8222C3.83664 20.3225 3.44282 19.7178 3.19159 19.0502C2.94459 18.4132 2.77659 17.6872 2.72659 16.6232C2.71546 16.3859 2.70546 16.1486 2.69659 15.9112L2.69159 15.7172C2.67316 14.9877 2.66482 14.258 2.66659 13.5282V11.4722C2.6638 10.7428 2.67114 10.0134 2.68859 9.28423L2.69559 9.09023C2.70359 8.86623 2.71359 8.64423 2.72559 8.37823C2.77559 7.31323 2.94359 6.58823 3.19059 5.95023C3.44197 5.28285 3.83656 4.67868 4.34659 4.18023C4.84549 3.67098 5.44955 3.2768 6.11659 3.02523C6.75459 2.77823 7.47959 2.61023 8.54459 2.56023L9.25659 2.53023L9.45059 2.52523C10.1798 2.5068 10.9092 2.49847 11.6386 2.50023L13.6946 2.50123ZM12.6666 7.50123C12.0041 7.49186 11.3463 7.61425 10.7316 7.8613C10.1168 8.10834 9.55724 8.47511 9.08544 8.94029C8.61364 9.40546 8.23899 9.95977 7.98328 10.571C7.72757 11.1822 7.59588 11.8382 7.59588 12.5007C7.59588 13.1633 7.72757 13.8192 7.98328 14.4305C8.23899 15.0417 8.61364 15.596 9.08544 16.0612C9.55724 16.5264 10.1168 16.8931 10.7316 17.1402C11.3463 17.3872 12.0041 17.5096 12.6666 17.5002C13.9927 17.5002 15.2644 16.9734 16.2021 16.0358C17.1398 15.0981 17.6666 13.8263 17.6666 12.5002C17.6666 11.1741 17.1398 9.90238 16.2021 8.9647C15.2644 8.02701 13.9927 7.50123 12.6666 7.50123ZM12.6666 9.50123C13.0651 9.49389 13.4611 9.56603 13.8314 9.71344C14.2017 9.86085 14.5389 10.0806 14.8234 10.3598C15.1078 10.639 15.3338 10.9721 15.488 11.3396C15.6423 11.7071 15.7218 12.1016 15.7219 12.5002C15.7219 12.8988 15.6426 13.2934 15.4884 13.6609C15.3343 14.0285 15.1084 14.3617 14.8241 14.641C14.5397 14.9203 14.2026 15.1401 13.8323 15.2876C13.4621 15.4352 13.0661 15.5074 12.6676 15.5002C11.8719 15.5002 11.1089 15.1842 10.5463 14.6216C9.98366 14.0589 9.66759 13.2959 9.66759 12.5002C9.66759 11.7046 9.98366 10.9415 10.5463 10.3789C11.1089 9.8163 11.8719 9.50023 12.6676 9.50023L12.6666 9.50123ZM17.9166 6.00123C17.594 6.01414 17.2889 6.15138 17.0652 6.3842C16.8415 6.61702 16.7166 6.92736 16.7166 7.25023C16.7166 7.5731 16.8415 7.88344 17.0652 8.11626C17.2889 8.34908 17.594 8.48632 17.9166 8.49923C18.2481 8.49923 18.5661 8.36753 18.8005 8.13311C19.0349 7.89869 19.1666 7.58075 19.1666 7.24923C19.1666 6.91771 19.0349 6.59977 18.8005 6.36535C18.5661 6.13093 18.2481 5.99923 17.9166 5.99923V6.00123Z" fill="white"/>
</svg>
