<svg width="25" height="25" viewBox="0 0 25 25" fill="none" xmlns="http://www.w3.org/2000/svg">
<path fill-rule="evenodd" clip-rule="evenodd" d="M10.095 9.469H13.809V11.319C14.344 10.255 15.716 9.299 17.777 9.299C21.728 9.299 22.666 11.417 22.666 15.303V22.5H18.666V16.188C18.666 13.975 18.131 12.727 16.769 12.727C14.88 12.727 14.095 14.072 14.095 16.187V22.5H10.095V9.469ZM3.23602 22.33H7.23602V9.299H3.23602V22.33ZM7.80902 5.05C7.80916 5.38528 7.74267 5.71724 7.6134 6.02659C7.48413 6.33594 7.29467 6.61651 7.05602 6.852C6.57242 7.33262 5.91783 7.60165 5.23602 7.6C4.55541 7.59954 3.90233 7.3312 3.41802 6.853C3.18023 6.61671 2.9914 6.33582 2.86236 6.02643C2.73332 5.71704 2.66659 5.38522 2.66602 5.05C2.66602 4.373 2.93602 3.725 3.41902 3.247C3.9029 2.76816 4.55626 2.4997 5.23702 2.5C5.91902 2.5 6.57302 2.769 7.05602 3.247C7.53802 3.725 7.80902 4.373 7.80902 5.05Z" fill="white"/>
</svg>
