<svg width="25" height="25" viewBox="0 0 25 25" fill="none" xmlns="http://www.w3.org/2000/svg">
<path d="M23.1251 6.5C22.3551 6.85 21.5251 7.08 20.6651 7.19C21.5451 6.66 22.2251 5.82 22.5451 4.81C21.7151 5.31 20.7951 5.66 19.8251 5.86C19.0351 5 17.9251 4.5 16.6651 4.5C14.3151 4.5 12.3951 6.42 12.3951 8.79C12.3951 9.13 12.4351 9.46 12.5051 9.77C8.94508 9.59 5.77508 7.88 3.66508 5.29C3.29508 5.92 3.08508 6.66 3.08508 7.44C3.08508 8.93 3.83508 10.25 4.99508 11C4.28508 11 3.62508 10.8 3.04508 10.5V10.53C3.04508 12.61 4.52508 14.35 6.48508 14.74C5.85581 14.9122 5.19517 14.9362 4.55508 14.81C4.82668 15.6625 5.35861 16.4084 6.07609 16.9429C6.79357 17.4775 7.66053 17.7737 8.55508 17.79C7.03871 18.9904 5.15907 19.6393 3.22508 19.63C2.88508 19.63 2.54508 19.61 2.20508 19.57C4.10508 20.79 6.36508 21.5 8.78508 21.5C16.6651 21.5 20.9951 14.96 20.9951 9.29C20.9951 9.1 20.9951 8.92 20.9851 8.73C21.8251 8.13 22.5451 7.37 23.1251 6.5Z" fill="white"/>
</svg>
