<svg width="21" height="20" viewBox="0 0 21 20" fill="none" xmlns="http://www.w3.org/2000/svg">
<path d="M1.66602 18.9831L3.31602 15.1831C2.05368 13.3912 1.48868 11.2002 1.72706 9.02123C1.96544 6.8423 2.9908 4.82526 4.61072 3.34864C6.23065 1.87203 8.33377 1.03734 10.5254 1.00122C12.717 0.965109 14.8465 1.73005 16.5142 3.1525C18.1819 4.57494 19.2732 6.5571 19.5832 8.72699C19.8932 10.8969 19.4007 13.1053 18.1981 14.9379C16.9955 16.7705 15.1655 18.1011 13.0514 18.6802C10.9374 19.2593 8.68464 19.047 6.71602 18.0831L1.66602 18.9831Z" stroke="white" stroke-width="2" stroke-linecap="round" stroke-linejoin="round"/>
<path d="M7.66602 7.98315C7.66602 8.11576 7.71869 8.24294 7.81246 8.33671C7.90623 8.43048 8.03341 8.48315 8.16602 8.48315C8.29862 8.48315 8.4258 8.43048 8.51957 8.33671C8.61334 8.24294 8.66602 8.11576 8.66602 7.98315V6.98315C8.66602 6.85055 8.61334 6.72337 8.51957 6.6296C8.4258 6.53583 8.29862 6.48315 8.16602 6.48315C8.03341 6.48315 7.90623 6.53583 7.81246 6.6296C7.71869 6.72337 7.66602 6.85055 7.66602 6.98315V7.98315ZM7.66602 7.98315C7.66602 9.30924 8.1928 10.581 9.13048 11.5187C10.0682 12.4564 11.3399 12.9832 12.666 12.9832M12.666 12.9832H13.666C13.7986 12.9832 13.9258 12.9305 14.0196 12.8367C14.1133 12.7429 14.166 12.6158 14.166 12.4832C14.166 12.3505 14.1133 12.2234 14.0196 12.1296C13.9258 12.0358 13.7986 11.9832 13.666 11.9832H12.666C12.5334 11.9832 12.4062 12.0358 12.3125 12.1296C12.2187 12.2234 12.166 12.3505 12.166 12.4832C12.166 12.6158 12.2187 12.7429 12.3125 12.8367C12.4062 12.9305 12.5334 12.9832 12.666 12.9832Z" stroke="white" stroke-width="2" stroke-linecap="round" stroke-linejoin="round"/>
</svg>
